<svg width="512" height="512" viewBox="0 0 512 512" fill="none" xmlns="http://www.w3.org/2000/svg">
<path d="M209.385 409.061C192.063 409.061 178.02 426.494 178.02 448H323.502C323.502 426.494 309.46 409.061 292.138 409.061H209.385Z" fill="#FF5F46"/>
<path d="M459.812 206.816C428.864 256.533 382.402 324.949 361.655 342.503C340.908 360.058 310.141 391.704 238.824 391.704C188.861 391.703 145.885 359.614 126.81 313.595C126.81 313.649 126.811 313.703 126.811 313.757C124.108 307.041 117.537 302.298 109.854 302.298C99.7601 302.298 91.5763 310.482 91.5763 320.576C91.5765 322.945 92.0274 325.114 92.8481 327.047C97.2387 337.39 108.92 337.831 108.92 370.097C108.92 374.794 108.92 366.344 108.92 370.097C78.578 370.096 53.9811 345.499 53.9805 315.157C53.9805 284.815 78.5776 260.218 108.92 260.218H116.287V260.209H203.559C210.078 260.209 216.337 262.969 220.41 268.06C227.547 276.979 233.016 285.282 237.048 292.134C240.783 298.481 251.969 298.543 255.667 292.173C259.565 285.457 264.744 277.343 271.308 268.619C275.385 263.201 281.863 260.209 288.643 260.209H321.093C368.514 260.209 394.507 237.472 407.78 221.086C414.648 212.606 424.403 206.816 435.314 206.816H459.812Z" fill="#FABFBA"/>
<path d="M246.743 286.125C246.743 224.929 197.937 175.293 137.646 175.064C197.937 174.835 246.744 125.196 246.744 64C246.744 64 246.744 64 246.744 64C246.744 125.338 295.777 175.063 356.262 175.063C295.778 175.063 246.743 224.787 246.743 286.125Z" fill="#FF5F46"/>
</svg>
